<svg id="Слой_1" data-name="Слой 1" xmlns="http://www.w3.org/2000/svg" viewBox="0 0 1074 216.5">
  <defs>
    <style>
      .cls-1 {
        fill: #ada7c9;
        stroke: #000;
      }

      .cls-1, .cls-11, .cls-12, .cls-13, .cls-14, .cls-15, .cls-16, .cls-17, .cls-4, .cls-8, .cls-9 {
        stroke-miterlimit: 10;
      }

      .cls-10, .cls-2, .cls-4 {
        fill: #64a6bd;
      }

      .cls-15, .cls-3, .cls-6 {
        fill: #fff;
      }

      .cls-3, .cls-7 {
        isolation: isolate;
      }

      .cls-3 {
        opacity: 0.7;
      }

      .cls-4, .cls-6 {
        stroke: #64a6bd;
      }

      .cls-14, .cls-5 {
        fill: none;
      }

      .cls-10, .cls-11, .cls-12, .cls-13, .cls-14, .cls-15, .cls-16, .cls-17, .cls-5, .cls-8, .cls-9 {
        stroke: #263238;
      }

      .cls-10, .cls-5, .cls-6 {
        stroke-linecap: round;
        stroke-linejoin: round;
      }

      .cls-7 {
        opacity: 0.3;
      }

      .cls-8 {
        fill: #1f1f1f;
      }

      .cls-9 {
        fill: #616161;
      }

      .cls-11 {
        fill: #3b3b3b;
      }

      .cls-12 {
        fill: #8c8c8c;
      }

      .cls-13 {
        fill: #263238;
      }

      .cls-16 {
        fill: #737373;
      }

      .cls-17 {
        fill: #262626;
      }
    </style>
  </defs>
  <polyline class="cls-1" points="-3 -2 1077 -2 1077 218 -3 218"/>
  <g id="freepik--background-simple--inject-2">
    <path class="cls-2" d="M1096.35,22.89s-28.89-54.22-66.71-75.35-97,38-124.48,43-18.57-40.85-68.77-32.39-83.9,53.52-97.66,64.08,2.75-16.9-33.7,2.11-68.77,60.57-72.21,94.37S634.2,199,665.15,225s74.27,8.45,114.16,7,68.77,28.17,108,12,94.9-49.29,110-33.8,25.45,27.46,68.09,6.34S1132.79,114.44,1096.35,22.89Z"/>
    <path class="cls-3" d="M1096.09,31s-28.88-54.22-66.71-75.35-97,38-124.47,43-18.57-40.85-68.78-32.39-83.9,53.52-97.65,64.08,2.75-16.9-33.7,2.11S636,92.94,632.57,126.74s1.37,80.28,32.32,106.34,74.28,8.45,114.16,7,68.77,28.17,108,12,94.91-49.29,110-33.8,25.45,27.46,68.08,6.34S1132.54,122.51,1096.09,31Z"/>
  </g>
  <g id="freepik--Water--inject-2">
    <path class="cls-4" d="M1058,225.91c17.11-8.55,31.29-27,39.65-51.95H634.16c3.61,22.66,14.88,45,32.89,60.33,12.34,10.47,26.68,13.83,42,14,21.7-.22,45.18-6.25,67.57-7,1.35-.05,2.74-.06,4.1,0,29.62-.51,53.13,16.19,79.75,16.71a60.77,60.77,0,0,0,22.32-4.8c32.17-13.4,75.63-38.46,97.79-37.47,5.65-.23,10.14.91,13.12,4,8.84,9.11,16,17,29.15,17.53C1031.48,236.85,1042.58,233.59,1058,225.91Z"/>
    <line class="cls-5" x1="1063.61" y1="184.43" x2="1083.9" y2="184.43"/>
    <line class="cls-5" x1="1070.38" y1="197" x2="1060.23" y2="197"/>
    <line class="cls-5" x1="655.8" y1="180.94" x2="669.32" y2="180.94"/>
    <line class="cls-5" x1="647.01" y1="192.81" x2="688.26" y2="192.81"/>
    <line class="cls-5" x1="672.71" y1="199.09" x2="644.88" y2="199.09"/>
    <line class="cls-5" x1="686.91" y1="183.73" x2="677.44" y2="183.73"/>
    <line class="cls-5" x1="663.24" y1="207.47" x2="674.74" y2="207.47"/>
    <line class="cls-5" x1="1040.96" y1="203.02" x2="1015.93" y2="203.02"/>
    <line class="cls-5" x1="990.91" y1="202.32" x2="1005.79" y2="202.32"/>
    <line class="cls-5" x1="1030.81" y1="213.49" x2="1002.41" y2="213.49"/>
    <line class="cls-5" x1="898.93" y1="204.41" x2="926.66" y2="204.41"/>
    <line class="cls-5" x1="964.53" y1="199.53" x2="952.36" y2="199.53"/>
    <line class="cls-5" x1="1059.51" y1="216.65" x2="1047.34" y2="216.65"/>
    <line class="cls-5" x1="993.62" y1="212.79" x2="978.74" y2="212.79"/>
    <line class="cls-5" x1="890.68" y1="191.37" x2="865.66" y2="191.37"/>
    <line class="cls-5" x1="840.63" y1="190.67" x2="855.51" y2="190.67"/>
    <line class="cls-5" x1="760.3" y1="190.67" x2="775.18" y2="190.67"/>
    <line class="cls-5" x1="880.54" y1="201.84" x2="852.13" y2="201.84"/>
    <line class="cls-5" x1="814.26" y1="187.87" x2="802.08" y2="187.87"/>
    <line class="cls-5" x1="843.34" y1="201.14" x2="828.46" y2="201.14"/>
    <line class="cls-5" x1="1028.96" y1="181.9" x2="1003.94" y2="181.9"/>
    <line class="cls-5" x1="978.91" y1="181.2" x2="993.79" y2="181.2"/>
    <line class="cls-5" x1="886.93" y1="183.3" x2="914.66" y2="183.3"/>
    <line class="cls-5" x1="711.97" y1="181.11" x2="739.7" y2="181.11"/>
    <line class="cls-5" x1="742.31" y1="181.11" x2="759.59" y2="181.11"/>
    <line class="cls-5" x1="830.5" y1="181.11" x2="847.78" y2="181.11"/>
    <line class="cls-5" x1="952.54" y1="178.41" x2="940.36" y2="178.41"/>
    <line class="cls-5" x1="926.84" y1="214.67" x2="901.82" y2="214.67"/>
    <line class="cls-5" x1="791.95" y1="213.97" x2="806.83" y2="213.97"/>
    <line class="cls-5" x1="699.98" y1="216.06" x2="727.7" y2="216.06"/>
    <line class="cls-5" x1="765.58" y1="211.18" x2="753.4" y2="211.18"/>
    <line class="cls-5" x1="1068.35" y1="190.72" x2="1056.85" y2="190.72"/>
  </g>
  <g id="freepik--splash-2--inject-2">
    <path class="cls-6" d="M1105.32,132.46c-12.47,5.32-29.08,17.49-34.21,16.16-8.12-2.09,3-7.33-1-37.7s-65.94,34.56-80.14,25.13S1000.1,95.21,994,66.94s-62.9,17.8-81.16,28.27-16.23,0-16.23-15.7S868.21,90,863.14,82.65s22.32-50.27,5.07-51.31S814.53,72.2,802.28,72.18s7.1-31.42,1-41.89-33.48,128.77-33.48,128.79l-6.09,31.42h326.55C1098.43,174.74,1103.83,154.92,1105.32,132.46Z"/>
  </g>
  <g id="freepik--Shadow--inject-2">
    <ellipse class="cls-7" cx="840.63" cy="194.77" rx="165.16" ry="7.55"/>
  </g>
  <g id="freepik--Character--inject-2">
    <path class="cls-8" d="M677.9,118.22s-9.77,3.27-13.31,4.55a23.22,23.22,0,0,0-5.5,2.7s-4.82,1.84-5.37,2.69-4.68,4.26-5.09,10.09,3.58,11.5,3.58,11.5l5.09,1.84S666,166.22,667.2,167s31.79,17.9,37.28,19.88S721.39,191,721.39,191H953.92s-1.8-21.94-12.93-30a178.65,178.65,0,0,0-18-11.81s-2.1-2.8-9-5.91-9.63-3.73-9.63-3.73l-7.84-10.26,13.84-5s1.81-3.11-.3-3.73-6.32-1.55-7.52-2.17a43,43,0,0,0-6.48-2.53c-4.52-1.56-95.52-5.1-95.52-5.1Z"/>
    <path class="cls-9" d="M800.46,110.72s4.95,5.12,4.4,8-13.62,17.18-15,17.88a5.26,5.26,0,0,1-2.06.7l-6.6,6.28s-33.71-5.11-38.66-5.11-34.68,1.68-34.68,1.68l-18.57-4.41,1.79-.57s-9.59-2.7-13.88-3.55-6.46.7-7.7-.42-.83-6.25-.83-6.25S683,113,690,109s10.43-5.82,10.43-5.82,44.71-13.63,51.31-14,24.07,7.24,30.81,11.07S800.46,110.72,800.46,110.72Z"/>
    <path class="cls-10" d="M724.63,139.17l51-17.53-37.58-6L691.1,135.15l.18,1,16.59,3.91S716.11,139.62,724.63,139.17Z"/>
    <path class="cls-11" d="M786.16,113.83c-9.68,0-61.51,19.81-78.11,26.25,2.34-.13,29.76-1.69,34.49-1.69,5,0,38.66,5.11,38.66,5.11l6.6-6.25a5.19,5.19,0,0,0,2.06-.69c1.26-.65,12.29-12.7,14.59-16.93C801,117.4,794.12,113.83,786.16,113.83Z"/>
    <path class="cls-8" d="M787.81,137.25a5.26,5.26,0,0,0,2.06-.7c1.26-.65,12.29-12.69,14.59-16.92a38.19,38.19,0,0,0-11.91-5.06,12.42,12.42,0,0,0-4.3,0c-7.6,1.49-40.87,23.88-40.87,23.88l13-3.35L784,140.86Z"/>
    <polygon class="cls-11" points="773.9 127.7 765.83 132.84 789.87 136.54 795.2 130.99 773.9 127.7"/>
    <path class="cls-11" d="M803.51,121.13l-16-2.09-9,5.7,19.94,2.67A80.11,80.11,0,0,0,803.51,121.13Z"/>
    <path class="cls-12" d="M754,108s-12.79,5.26-16,7.68c0,0,12.52,5,16.65,5s11.82-.56,12.79-1.56,1-1.13-1.79-4.11S754,108,754,108Z"/>
    <path class="cls-13" d="M767.45,119.1c.61-.63.83-.92.21-1.81-4.66.08-14.15.21-17.82.1a76.3,76.3,0,0,1-11.83-1.7s12.52,5,16.65,5S766.48,120.07,767.45,119.1Z"/>
    <path class="cls-9" d="M750.94,83.16s3.44,4.53,2.75,6-4.53,4.12-4.26,5l1.23,3.83s6.77,1.14,6.2,2.42S754,108,754,108l-16,7.68L727.56,110l-31.92.85S702,99.23,707.06,96s10.86-5.25,13.62-6.39,22.69-7,23.11-7.1S750.94,83.16,750.94,83.16Z"/>
    <path class="cls-12" d="M719.44,90s-6.76,7.81-5.23,8.52a32.48,32.48,0,0,0,15.41,1.27c6.32-1.27,19-1.55,19-1.55l2.51-.21-1.68-3.91,1.09-1.25,3.17-3.72-.27-1.89-3.49-3.49-25.28,5.59-1.85-.55Z"/>
    <path class="cls-14" d="M728.25,100.05s.27-2.84,1.1-3.27a120.15,120.15,0,0,1,14.71-5.11c7.57-2.13,8.4-2.13,8.4-2.13"/>
    <polygon class="cls-13" points="697.98 111.12 695.5 114.39 698.8 116.52 727.14 115.24 732.78 112.97 727.55 109.99 697.98 111.12"/>
    <path class="cls-9" d="M820.14,121.89l-23.26,23.88,24.65,4,71.34-13.05,7.82-5.9,18.67-6.21-1.45-4.23c-1.21-1.22-3.06-6.75-7.28-8.21-4.52-1.55-94.47.75-94.47.75s1.16,1.74,2.06,3S820.14,121.89,820.14,121.89Z"/>
    <line class="cls-14" x1="909.96" y1="119.97" x2="914.16" y2="119.82"/>
    <line class="cls-14" x1="873.93" y1="121.23" x2="906.14" y2="120.1"/>
    <polygon class="cls-10" points="811.8 148.2 821.53 149.81 877.97 139.48 884.25 131.27 817.92 142.13 811.8 148.2"/>
    <polygon class="cls-10" points="769.65 74.63 766.9 71.36 771.03 67.82 774.74 71.65 769.65 74.63"/>
    <path class="cls-15" d="M814,62.73s-12.76-3-15.47-3-23.33,4.18-23.33,4.18-5.87,0-7.07.94-3.31,4.5-3.31,4.5,3.69,5.22,4.89,5.22c0,0-.83-3.19-.23-3.66s4.36-.62,4.36-.62.16.47,1.36.77,6.42-2.61,6.42-2.61,11.59.78,14.15.78a39.24,39.24,0,0,0,5.41-.47,67.46,67.46,0,0,1,6.62,3.89c4.06,2.64,8.86,6.28,8.86,6.28l5.6-12Z"/>
    <path class="cls-16" d="M768.07,64.91c-1.21.93-3.32,4.5-3.32,4.5s3.7,5.22,4.9,5.22c0,0-.19-3.08.41-3.54s3.72-.74,3.72-.74.16.46,1.35.77c.68.18,2.8-.75,4.42-1.56a7.34,7.34,0,0,0-2.5-6l-1.92.38S769.27,63.94,768.07,64.91Z"/>
    <path class="cls-13" d="M777.05,63.59l-1.91.38h-.76a9.66,9.66,0,0,1,2.13,6.91,25,25,0,0,0,3-1.35A7.32,7.32,0,0,0,777.05,63.59Z"/>
    <path class="cls-14" d="M857.72,134.77c-2,2.09-3.42,3.49-3.42,3.49"/>
    <path class="cls-14" d="M862,112.07s11.25-1.18,7,7.52c-2.23,4.6-6.23,9.55-9.47,13.19"/>
    <path class="cls-15" d="M857.34,111.2s3,10.88-3.61,18.33-25,13.67-27.39,14.61c0,0,.9-.32,5.41,2.17s14.75,7.45,17.46,8.38,4.82.92,3.91,2.79-4.82,5-4.82,5a14.69,14.69,0,0,1-3.61,3.11c-1.8.93-12.34,3.42-16.85,3.11s-3.32-2.18-1.21-2.79S836.87,159,836.87,159,808,152.83,805,151.59s-3.92-6.84-3.92-9,15.05-14.91,18.06-16.46,8.11-6.22,8.11-6.22-15.65-5.58-17.76-6.83-7.82-2.49-7.82-2.49-7.22-1.55-3.32-6.52S811,96.9,815.79,97.52a52,52,0,0,1,7.82,1.56Z"/>
    <path class="cls-10" d="M848.28,162.46s3.91-3.1,4.81-5-1.2-1.86-3.91-2.79c-.63-.22-1.67-.66-2.95-1.23a4.52,4.52,0,0,1,.17,3.58c-.9,1.71-4.51,3.11-6.31,2.49a6.14,6.14,0,0,0-2.71-.47l-.67.08c-1,.77-8.15,6.15-10.11,6.73-2.11.63-3.31,2.49,1.2,2.8s15.05-2.18,16.86-3.11A14.71,14.71,0,0,0,848.28,162.46Z"/>
    <path class="cls-10" d="M823.6,99.09a49.4,49.4,0,0,0-7.12-1.46,27.81,27.81,0,0,0-7.91,15c.3.13.59.28.88.44,2.11,1.25,17.76,6.84,17.76,6.84s-5.12,4.66-8.12,6.21c-1.5.78-6,4.37-10.17,8,4.26-.24,12.45.67,17.4,10,2.4-.94,20.77-7.15,27.39-14.61s3.63-18.33,3.63-18.33Z"/>
    <path class="cls-13" d="M835.76,103.46l-15.44,14c3.7,1.4,6.89,2.51,6.89,2.51a63.12,63.12,0,0,1-7.3,5.74l26.19-5.18-5.77,17.87c5.15-2.47,10.42-5.54,13.36-8.86,6.63-7.45,3.62-18.33,3.62-18.33Z"/>
    <path class="cls-10" d="M815.62,75.16s-.45,12.57,3,18.8-.15,16.62,1,19.26A14.28,14.28,0,0,0,831,121.6c7.07,1.07,15.2-1.72,20.92-3.58s8.58-4.5,6.92-13.35-4.66-16.94-10.68-27.82-14-11.65-15.65-12.56S821.49,60.09,815.62,75.16Z"/>
    <path class="cls-13" d="M856.55,95.67a102.75,102.75,0,0,0-8.42-18.8c-6-10.87-14-11.66-15.65-12.57s-11-4.19-16.86,10.88c0,0-.45,12.56,3,18.79a15.63,15.63,0,0,1,1.55,7.63,29.56,29.56,0,0,0,13.35,6.2c5,.76,6.94.85,7.57.74l1.29,12.3c3.47-.79,6.77-1.9,9.47-2.79a21.23,21.23,0,0,0,2.58-1l-3.78-11.72S853.89,102.65,856.55,95.67Z"/>
    <path class="cls-15" d="M839.7,79.82S829.92,84.48,829,92.71s5.72,10.57,12.17,10.41,11-6.06,11-12S848,76.87,839.7,79.82Z"/>
    <path class="cls-15" d="M814.69,53.4S811.38,56,811.77,59s2,19.93,4.88,19.93a8,8,0,0,0,4.68-1.4l1.17,1.21s-1.36,9.66,0,9.86,7.4-9.86,9-12.48a16.85,16.85,0,0,0,1.95-7.67,3.37,3.37,0,0,0-.78-2.22s.78-7-.39-11.47-5.85-5.43-10.53-5.43A8.58,8.58,0,0,0,814.69,53.4Z"/>
    <path class="cls-13" d="M822.3,56.82a15.71,15.71,0,0,1-6.22,1.61c-3.11,0-5.06.2-5.06-3s4.06-6,3.89-4.63c0,0-.59,1.14-.27,1.48s1-.69,2.46-1.68A8.37,8.37,0,0,1,823,49.05l2.94.17a12.78,12.78,0,0,1,4.58,2.37c1.55,1.52,2,3,2.38,5.58s.49,8.53.24,9a2.93,2.93,0,0,1-1.8.93c-.33,0,.17-3.21-1-4.47a2.5,2.5,0,0,0-3.68.33c-.41.85-1.38,2.28-2,2.36s-1.06-.75-.82-1.51-.82-1.18-1.63-1.52,0-4.64,0-4.64,4.41-2.45,3.67-2.28S822.3,56.82,822.3,56.82Z"/>
    <path class="cls-14" d="M825.74,64.64s1.55-3.29,3.38-2.7,2.12,1.6,1.22,4.38-2,3.89-3,2.37"/>
    <path class="cls-13" d="M813.88,64.92l-1.63-1.18c-.82-.59-2.37-.7-2.29,0s1.23,3.8,1.88,4.19,1.15-1.86,2-1.77,1.06,2,2,2.45,3.19.7,3.76-.43a3.85,3.85,0,0,0-.16-2.79L826.62,63l.82-.51-8.34,1.69S815.35,62.55,813.88,64.92Z"/>
    <path class="cls-15" d="M813.47,66.61s-1.55,3.72-.67,4.3,3.51-.33,3.51-.33"/>
    <path class="cls-14" d="M814.54,73.1s1.31,1.44,4.25-1.18"/>
    <path class="cls-13" d="M821.33,77.55s4-3.26,4.16-3.49-1.14,4-1.14,4l1.2,3.37Z"/>
    <path class="cls-11" d="M663.17,145.38s79.76-2.18,85.78-2.18,17.46,13.36,17.46,13.36S805,167.13,808,167.13h41.83c15.65,0,43.65,9.32,43.65,9.32l26.18-.31,6,3.11h-68S763.1,178,741.13,176.76s-50-10.89-61.4-15.23S657.15,146.32,663.17,145.38Z"/>
    <path class="cls-17" d="M693,156.1l2,10.73c13.42,4.32,31.18,9.08,46.15,9.9,22,1.25,116.48,2.49,116.48,2.49h68l-6-3.11-26.19.31s-28-9.29-43.65-9.29H808c-3,0-41.54-10.57-41.54-10.57S746.28,151,733.18,151,693,156.1,693,156.1Z"/>
    <path class="cls-10" d="M804.73,176s-12.65-1.34-37-8.7-34-8-43.45-4a43.59,43.59,0,0,1,18.81.7c9.72,2.68,39.55,13.05,39.55,13.05Z"/>
    <path class="cls-8" d="M900.35,189.81s-25.58-13.67-39.43-13.67-62-2.18-88.49-2.18-64.72-8.38-64.72-8.38a87.79,87.79,0,0,0-12.94-9.94,13.46,13.46,0,0,0-12.34-.63l-17.16-8.39c-7.52-5.88-9.63-7.77-10.23-12.74-.37-3.09,2.75-6.78,5.15-9.13a11.25,11.25,0,0,0-1.14.7s-4.81,1.84-5.36,2.69-4.68,4.26-5.09,10.08,3.57,11.51,3.57,11.51l5.1,1.84s8.66,14.63,9.9,15.36,31.78,17.89,37.28,19.88,16.9,4.12,16.9,4.12h180Z"/>
    <path class="cls-13" d="M770.47,71.25h0a3.51,3.51,0,0,0,.11,5.21L772.29,78a3.46,3.46,0,0,0,4.62,0h0a3.75,3.75,0,0,0,.38-5.17,3.6,3.6,0,0,0-.77-.69l-1.89-1.26A3.3,3.3,0,0,0,770.47,71.25Z"/>
    <path class="cls-13" d="M796.88,92l-18.67-16.8a2.83,2.83,0,0,0-3.3-.37h0a3,3,0,0,0-1.18,4l.48.95L772.56,88l6.19,7.53,12.38-2.7,2.34,2.13Z"/>
    <path class="cls-13" d="M794,91.7h0a3.57,3.57,0,0,0-.16,4.94c.08.09.18.18.27.27l1.71,1.51a3.46,3.46,0,0,0,4.62,0h0a3.73,3.73,0,0,0,.38-5.16,3.37,3.37,0,0,0-.77-.69l-1.88-1.26A3.3,3.3,0,0,0,794,91.7Z"/>
    <polygon class="cls-10" points="769.93 90.4 772.54 87.98 778.73 95.51 775.42 98.35 769.93 90.4"/>
    <path class="cls-11" d="M768,87.68l6.88,6.4a43.17,43.17,0,0,1,4.4,7.8l-5.92-.43-18.43-4.39Z"/>
    <path class="cls-13" d="M773.36,101.47l5.92.42a43.17,43.17,0,0,0-4.4-7.8l-7.18,6Z"/>
    <path class="cls-10" d="M805.55,98.63l-4.28-4.11a2.39,2.39,0,0,0-3.3,0h0a2.56,2.56,0,0,0-.2,3.55,1.34,1.34,0,0,0,.2.21l4.74,4.36Z"/>
    <path class="cls-16" d="M816.38,99.24s-4.52-2-7.83-2-8.7,3.11-8.7,3.11a21,21,0,0,0,1.21,3c.6,1.09,4.66,2.33,5.72,3.1s2.41-.62,3.31-.77l3.76-.62.75.31Z"/>
    <path class="cls-13" d="M811.17,97.54c-.73,1.6-1.25,4.14-.59,8l3.23-.53.76.31,1.81-6.06A29.37,29.37,0,0,0,811.17,97.54Z"/>
    <path class="cls-15" d="M832.63,94l-1.06,14.14-15.8-8.85-1.2,6.06s18.81,15.84,20,16.93,3.92.62,4.82-.31,5.12-12.27,7.07-20.35,3.17-11.81,3.17-11.81"/>
    <path class="cls-15" d="M831.57,108.09s2,4.51,4.06,5.59"/>
    <path class="cls-15" d="M826.3,144.14h.5A1.06,1.06,0,0,0,826.3,144.14Z"/>
    <path class="cls-14" d="M818.53,147.6c-.63.31-1.21.62-1.72.91"/>
    <path class="cls-14" d="M826.3,144.14s-3.29,1.32-6.33,2.79"/>
    <path class="cls-10" d="M743.79,82.44c-.35.12-15.06,4.42-21,6.36l-3.63,4.88L726.87,96s16-6.29,26.57-8.78A23.88,23.88,0,0,0,751,83.16S744.2,82.3,743.79,82.44Z"/>
  </g>
  <g id="freepik--splash-1--inject-2">
    <path class="cls-6" d="M1032.42,191.18c-.24-.25-12.41-12.71-20.81-11.17S997,186.39,997,176s-17.74-2.38-27.77,1.6-4.63-.8-6.94-9.56-10.83-1.59-20.06.8-9.26,0-14.66-11.17-20,8-25.46,8-4.62-13.54-10.82-33.44S846.38,157,826.45,162.48s-3.86-4-13.12-19.91c-8.65-14.88-55.69,41.14-61.82,48.57Z"/>
    <path class="cls-6" d="M923.72,153.07s25.14-47.94,51.7-74,26.08-20.94,26.08-20.94l1.42,3.72s10-8.38,10.9-4.66-13.26,5.47-31.3,23.28C972.56,90.31,940.8,127,923.72,153.07Z"/>
    <path class="cls-6" d="M999.2,53.89c.67,1.4,3.38,1.48,5.93.22s4.11-3.4,3.39-4.78-3.39-1.48-5.94-.22S998.5,52.51,999.2,53.89Z"/>
    <path class="cls-6" d="M1022.12,51c.35.7,1.68.74,3,.11s2-1.7,1.7-2.39-1.68-.74-3-.11S1021.77,50.26,1022.12,51Z"/>
    <path class="cls-6" d="M1031.41,41.12c.35.69,1.68.74,3,.11s2-1.71,1.7-2.4-1.68-.74-3-.1S1031.06,40.42,1031.41,41.12Z"/>
    <path class="cls-6" d="M1014.34,47.19c.26.52,1.24.55,2.2.08s1.52-1.26,1.27-1.77-1.25-.55-2.21-.08S1014.08,46.66,1014.34,47.19Z"/>
    <path class="cls-6" d="M1016.05,57c.26.51,1.25.55,2.2.08s1.53-1.26,1.27-1.77-1.25-.55-2.21-.09S1015.79,56.52,1016.05,57Z"/>
    <path class="cls-6" d="M1036.44,43.53c.26.51,1.25.55,2.21.08s1.52-1.26,1.26-1.78-1.24-.54-2.21-.07S1036.18,43,1036.44,43.53Z"/>
    <path class="cls-6" d="M1011.54,54.36c.35.7,1.68.74,3,.1s2-1.69,1.7-2.38-1.68-.74-3-.12S1011.18,53.67,1011.54,54.36Z"/>
    <path class="cls-6" d="M1021.45,45.79c.35.7,1.68.74,3,.11s2-1.7,1.7-2.39-1.68-.74-3-.11S1021.1,45.1,1021.45,45.79Z"/>
  </g>
</svg>
